<svg aria-hidden="true" style="position: absolute; width: 0; height: 0; overflow: hidden;" version="1.1" xmlns="http://www.w3.org/2000/svg" xmlns:xlink="http://www.w3.org/1999/xlink">
<defs>
<symbol id="icon-burger" viewBox="0 0 32 32">
<path d="M28 10h-24c-0.552 0-1-0.448-1-1s0.448-1 1-1v0h24c0.552 0 1 0.448 1 1s-0.448 1-1 1v0z"></path>
<path d="M28 17h-24c-0.552 0-1-0.448-1-1s0.448-1 1-1v0h24c0.552 0 1 0.448 1 1s-0.448 1-1 1v0z"></path>
<path d="M28 24h-24c-0.552 0-1-0.448-1-1s0.448-1 1-1v0h24c0.552 0 1 0.448 1 1s-0.448 1-1 1v0z"></path>
</symbol>
<symbol id="icon-check-mark" viewBox="0 0 32 32">
<path fill="#485982" style="fill: var(--color1, #485982)" d="M25.6 0h-19.2c-3.534 0-6.4 2.866-6.4 6.4v19.2c0 3.534 2.866 6.4 6.4 6.4h19.2c3.534 0 6.4-2.866 6.4-6.4v-19.2c0-3.534-2.866-6.4-6.4-6.4zM25.97 13.031l-9.9 9.899c-0.547 0.548-1.262 0.82-1.979 0.82s-1.433-0.272-1.979-0.82l-6.082-6.081c-1.092-1.092-1.092-2.865 0-3.958 1.094-1.093 2.866-1.093 3.96 0l4.101 4.101 7.92-7.92c1.093-1.093 2.866-1.093 3.959 0 1.095 1.093 1.095 2.866 0.001 3.96z"></path>
</symbol>
<symbol id="icon-cross" viewBox="0 0 32 32">
<path d="M20.783 15.999l10.226-10.226c1.321-1.321 1.321-3.462 0-4.783s-3.462-1.321-4.783 0l-10.226 10.227-10.226-10.226c-1.321-1.321-3.462-1.321-4.783 0s-1.321 3.462 0 4.783l10.226 10.226-10.226 10.226c-1.321 1.321-1.321 3.462 0 4.783s3.462 1.321 4.783 0l10.226-10.225 10.226 10.225c1.321 1.321 3.462 1.321 4.783 0s1.321-3.462 0-4.783l-10.226-10.227z"></path>
</symbol>
<symbol id="icon-fb" viewBox="0 0 32 32">
<path fill="#344265" style="fill: var(--color2, #344265)" d="M22.711 0h-1.732c-4.813 0-8.729 3.916-8.729 8.729v3.684h-2.959c-0.305 0-0.552 0.247-0.552 0.552v4.414c0 0.305 0.247 0.552 0.552 0.552h2.958v13.518c0 0.305 0.247 0.552 0.552 0.552h4.414c0.305 0 0.552-0.247 0.552-0.552v-13.518h4.39c0.305 0 0.552-0.247 0.552-0.552v-4.414c0-0.305-0.247-0.552-0.552-0.552h-4.39v-3.684c0-1.771 1.441-3.212 3.212-3.212h1.732c0.305 0 0.552-0.247 0.552-0.552v-4.414c0-0.305-0.247-0.552-0.551-0.552z"></path>
</symbol>
<symbol id="icon-inst" viewBox="0 0 32 32">
<path fill="#344265" style="fill: var(--color2, #344265)" d="M16.005 0.001c-4.345 0-4.891 0.019-6.597 0.097-1.703 0.078-2.866 0.348-3.883 0.743-1.052 0.409-1.945 0.955-2.834 1.845s-1.437 1.782-1.847 2.834c-0.397 1.018-0.667 2.181-0.743 3.883-0.076 1.707-0.096 2.252-0.096 6.598s0.019 4.889 0.097 6.596c0.078 1.703 0.348 2.866 0.743 3.883 0.409 1.052 0.956 1.945 1.845 2.834s1.782 1.438 2.833 1.847c1.018 0.396 2.181 0.665 3.884 0.743 1.707 0.078 2.252 0.097 6.597 0.097s4.889-0.019 6.596-0.097c1.703-0.078 2.867-0.348 3.886-0.743 1.052-0.409 1.943-0.957 2.832-1.847s1.437-1.782 1.847-2.834c0.393-1.018 0.663-2.181 0.743-3.883 0.077-1.707 0.097-2.251 0.097-6.596s-0.020-4.891-0.097-6.597c-0.080-1.703-0.35-2.866-0.743-3.883-0.41-1.052-0.957-1.945-1.847-2.834s-1.78-1.437-2.833-1.845c-1.020-0.396-2.183-0.665-3.887-0.743-1.707-0.078-2.25-0.097-6.597-0.097h0.005zM14.569 2.884c0.426-0.001 0.901 0 1.435 0 4.272 0 4.778 0.015 6.465 0.092 1.56 0.071 2.407 0.332 2.971 0.551 0.747 0.29 1.279 0.637 1.839 1.197s0.907 1.093 1.197 1.84c0.219 0.563 0.48 1.41 0.551 2.97 0.077 1.687 0.093 2.193 0.093 6.463s-0.017 4.777-0.093 6.463c-0.071 1.56-0.332 2.407-0.551 2.97-0.29 0.747-0.637 1.278-1.197 1.838s-1.092 0.907-1.839 1.197c-0.563 0.22-1.411 0.48-2.971 0.551-1.687 0.077-2.193 0.093-6.465 0.093s-4.779-0.017-6.465-0.093c-1.56-0.072-2.407-0.333-2.971-0.552-0.747-0.29-1.28-0.637-1.84-1.197s-0.907-1.092-1.197-1.839c-0.219-0.563-0.48-1.41-0.551-2.97-0.077-1.687-0.092-2.193-0.092-6.466s0.015-4.777 0.092-6.463c0.071-1.56 0.332-2.407 0.551-2.971 0.29-0.747 0.637-1.28 1.197-1.84s1.093-0.907 1.84-1.197c0.564-0.22 1.411-0.48 2.971-0.552 1.476-0.067 2.048-0.087 5.030-0.090v0.004zM24.545 5.541c-1.060 0-1.92 0.859-1.92 1.919s0.86 1.92 1.92 1.92c1.060 0 1.92-0.86 1.92-1.92s-0.86-1.92-1.92-1.92v0.001zM16.005 7.784c-4.538 0-8.217 3.679-8.217 8.217s3.679 8.215 8.217 8.215c4.538 0 8.215-3.677 8.215-8.215s-3.678-8.217-8.216-8.217h0zM16.005 10.667c2.945 0 5.333 2.388 5.333 5.333s-2.388 5.333-5.333 5.333c-2.946 0-5.333-2.388-5.333-5.333s2.388-5.333 5.333-5.333z"></path>
</symbol>
<symbol id="icon-pin" viewBox="0 0 32 32">
<path fill="#344265" style="fill: var(--color2, #344265)" d="M3.623 11.487c0-1.344 0.282-2.678 0.848-3.999s1.376-2.55 2.432-3.679c1.056-1.129 2.441-2.048 4.159-2.751s3.622-1.056 5.711-1.056c3.391 0 6.175 1.046 8.35 3.135s3.263 4.553 3.263 7.39c0 3.647-0.921 6.661-2.767 9.038s-4.23 3.567-7.151 3.567c-0.96 0-1.862-0.224-2.703-0.672s-1.433-0.992-1.776-1.632l-1.28 5.055c-0.106 0.406-0.246 0.816-0.416 1.232s-0.358 0.816-0.56 1.2-0.406 0.745-0.608 1.088c-0.202 0.342-0.406 0.662-0.608 0.96s-0.378 0.55-0.528 0.752-0.288 0.377-0.416 0.528l-0.192 0.256c-0.064 0.086-0.15 0.118-0.256 0.096s-0.17-0.086-0.192-0.192c0-0.022-0.016-0.17-0.048-0.448s-0.064-0.57-0.096-0.88c-0.032-0.31-0.064-0.71-0.096-1.2s-0.042-0.966-0.032-1.424c0.010-0.458 0.042-0.966 0.096-1.52s0.134-1.065 0.24-1.536c0.234-1.001 1.024-4.341 2.368-10.014-0.17-0.342-0.31-0.752-0.416-1.232s-0.16-0.87-0.16-1.168l-0.032-0.48c0-1.366 0.346-2.502 1.040-3.407s1.529-1.36 2.511-1.36c0.79 0 1.401 0.262 1.84 0.784s0.656 1.177 0.656 1.968c0 0.489-0.090 1.094-0.272 1.808s-0.422 1.536-0.72 2.463c-0.298 0.928-0.512 1.68-0.64 2.256-0.214 0.96-0.026 1.792 0.56 2.496s1.369 1.056 2.351 1.056c1.686 0 3.078-0.953 4.175-2.863s1.648-4.217 1.648-6.927c0-2.070-0.672-3.759-2.016-5.071s-3.222-1.968-5.631-1.968c-2.687 0-4.869 0.864-6.543 2.591s-2.511 3.798-2.511 6.207c0 1.43 0.406 2.633 1.216 3.615 0.278 0.32 0.362 0.662 0.256 1.024-0.042 0.106-0.106 0.352-0.192 0.736s-0.15 0.63-0.192 0.736c-0.042 0.233-0.15 0.39-0.32 0.464s-0.362 0.070-0.576-0.016c-1.257-0.512-2.201-1.392-2.831-2.639s-0.944-2.703-0.944-4.367z"></path>
</symbol>
<symbol id="icon-youtube" viewBox="0 0 32 32">
<path fill="#344265" style="fill: var(--color2, #344265)" d="M16.105 3.996c0.011 0 0.024 0 0.037 0l0.142 0c1.644 0.006 9.974 0.066 12.22 0.67 1.377 0.369 2.461 1.458 2.829 2.839 0.203 0.759 0.344 1.768 0.442 2.805l0.019 0.208c0.015 0.173 0.030 0.347 0.043 0.52l0.015 0.207c0.132 1.828 0.147 3.539 0.149 3.913l0 0.050c0 0.004 0 0.011 0 0.011v0.028c0 0 0 0.007 0 0.011l-0 0.050c-0.002 0.388-0.018 2.216-0.164 4.121l-0.017 0.208-0.017 0.208c-0.099 1.145-0.248 2.282-0.47 3.117-0.368 1.381-1.452 2.47-2.829 2.839-2.321 0.624-11.138 0.668-12.361 0.671l-0.094 0c-0.008 0-0.015 0-0.020 0h-0.038c0 0-0.009 0-0.015 0l-0.115-0c-0.618-0.002-3.176-0.014-5.854-0.105l-0.342-0.012c-0.057-0.002-0.114-0.004-0.171-0.006l-0.343-0.014-0.342-0.015c-2.219-0.097-4.335-0.257-5.308-0.519-1.377-0.369-2.461-1.458-2.829-2.839-0.223-0.835-0.372-1.972-0.471-3.117l-0.017-0.208-0.016-0.208c-0.14-1.835-0.161-3.599-0.164-4.073l-0-0.068c-0-0.006-0-0.012-0-0.017v-0.078c0-0.005 0-0.011 0-0.017l0-0.068c0.003-0.429 0.020-1.916 0.127-3.556l0.014-0.206c0.002-0.034 0.005-0.069 0.007-0.103l0.015-0.207c0.013-0.173 0.028-0.347 0.043-0.52l0.019-0.208c0.098-1.037 0.24-2.046 0.442-2.805 0.368-1.381 1.452-2.47 2.829-2.839 0.973-0.262 3.089-0.421 5.308-0.519l0.342-0.014 0.343-0.014c0.057-0.002 0.114-0.004 0.171-0.006l0.342-0.012c2.508-0.086 4.909-0.102 5.713-0.105l0.142-0c0.013-0 0.025-0 0.037-0h0.209zM12.801 10.419v9.634l8.313-4.817-8.313-4.817z"></path>
</symbol>
</defs>
</svg>
