<svg aria-hidden="true" style="position: absolute; width: 0; height: 0; overflow: hidden;" version="1.1" xmlns="http://www.w3.org/2000/svg" xmlns:xlink="http://www.w3.org/1999/xlink">
<defs>
<symbol id="icon-check-mark" viewBox="0 0 32 32">
<path fill="#485982" style="fill: var(--color1, #485982)" d="M25.6 0h-19.2c-3.534 0-6.4 2.866-6.4 6.4v19.2c0 3.534 2.866 6.4 6.4 6.4h19.2c3.534 0 6.4-2.866 6.4-6.4v-19.2c0-3.534-2.866-6.4-6.4-6.4zM25.97 13.031l-9.9 9.899c-0.547 0.548-1.262 0.82-1.979 0.82s-1.433-0.272-1.979-0.82l-6.082-6.081c-1.092-1.092-1.092-2.865 0-3.958 1.094-1.093 2.866-1.093 3.96 0l4.101 4.101 7.92-7.92c1.093-1.093 2.866-1.093 3.959 0 1.095 1.093 1.095 2.866 0.001 3.96z"></path>
</symbol>
<symbol id="icon-burger" viewBox="0 0 32 32">
<path d="M28 10h-24c-0.552 0-1-0.448-1-1s0.448-1 1-1v0h24c0.552 0 1 0.448 1 1s-0.448 1-1 1v0z"></path>
<path d="M28 17h-24c-0.552 0-1-0.448-1-1s0.448-1 1-1v0h24c0.552 0 1 0.448 1 1s-0.448 1-1 1v0z"></path>
<path d="M28 24h-24c-0.552 0-1-0.448-1-1s0.448-1 1-1v0h24c0.552 0 1 0.448 1 1s-0.448 1-1 1v0z"></path>
</symbol>
<symbol id="icon-cross" viewBox="0 0 32 32">
<path d="M20.783 15.999l10.226-10.226c1.321-1.321 1.321-3.462 0-4.783s-3.462-1.321-4.783 0l-10.226 10.227-10.226-10.226c-1.321-1.321-3.462-1.321-4.783 0s-1.321 3.462 0 4.783l10.226 10.226-10.226 10.226c-1.321 1.321-1.321 3.462 0 4.783s3.462 1.321 4.783 0l10.226-10.225 10.226 10.225c1.321 1.321 3.462 1.321 4.783 0s1.321-3.462 0-4.783l-10.226-10.227z"></path>
</symbol>
</defs>
</svg>
